#!OML:ASF F:\VICON\USERDATA\INSTALL\rory3\rory3.ASF
:FULLY-SPECIFIED
:DEGREES
37
root 0.00033395773918279414 17.906908371256595 4.67483983987245 4.608528275987491 -4.085469433262348 0.2272385105693968
lfemur 12.122378321958285 -3.189715101768518 -28.330963161805954
ltibia 52.60915266887971
lfoot 13.539758472548057 -9.44712829675409
ltoes -12.843417318973039
rfemur -35.05633407829828 -5.068351223798096 29.435644718459557
rtibia 29.208280874319932
rfoot -4.076118098944102 -8.99613641581766
rtoes -22.855059083240622
lowerback 15.027635775520856 -1.2233446941618022 -1.9436667871571258
upperback -1.318739450450312 -1.8593076223867797 1.4943212186931756
thorax -7.996310667556678 -0.7222917225957978 3.4105143234587407
lowerneck -20.681733503930765 -2.856835872998722 -2.5575305737556726
upperneck 14.754061089120372 -3.5283845532251235 2.5071305306590936
head 8.11439695142478 -1.5005098400846257 0.7596717017742237
lclavicle -1.7173233485189782e-15 1.7919911331697547e-15
lhumerus -35.93873972167412 -20.24056074180567 94.04838923265034
lradius 112.02079635958643
lwrist 32.62688893199804
lhand -23.75392715260903 -0.8788611276574374
lfingers 7.12502
lthumb 2.703658848112225 29.390697155392257
rclavicle -1.7332883454753606e-15 1.7794870667065446e-15
rhumerus -65.79643784828404 0.27889530191927747 -94.65907452392767
rradius 113.06292225903701
rwrist -12.786021805243944
rhand -14.173936025003986 39.53316410315897
rfingers 7.12502
rthumb 10.966205003378045 10.728710665358017
38
root 0.026753742972234762 17.768424288001807 5.688040283745867 4.127015055048904 -4.70649515625091 -0.5687778850514
lfemur 9.897050021591523 -1.8958565628788995 -26.982561895406867
ltibia 60.79313204079638
lfoot 12.090246557426365 -9.016962312616803
ltoes -8.38872761933122
rfemur -33.681202809748456 -4.244720121600027 30.695134474463345
rtibia 32.482911419789886
rfoot -3.9452889469472314 -6.237634431302276
rtoes -21.938212870834736
lowerback 15.477416578855541 -1.0582061198430168 -1.070947601458087
upperback -1.0656301272779696 -1.6016357399999563 1.6845784081711843
thorax -8.134324519745649 -0.6136767977504877 2.9891797326201277
lowerneck -20.477754978956618 -2.860304623667315 -2.6800169584706612
upperneck 14.687955208443418 -3.495914600253702 2.4222755510160616
head 8.096368662322535 -1.4988643469846248 0.7434875105445626
lclavicle -1.7160158697490546e-15 1.792928347524696e-15
lhumerus -37.189628344959374 -19.854962632504737 95.05718423773594
lradius 107.92228439596829
lwrist 31.822915345215257
lhand -23.840192616380065 0.2202674566686471
lfingers 7.12502
lthumb 2.8004758487930044 30.75732574153944
rclavicle -1.7325756357726264e-15 1.779538570968834e-15
rhumerus -65.0352986539551 -0.27508688018962424 -94.33683643733897
rradius 112.7155653702208
rwrist -13.068213063836103
rhand -14.343371194233615 39.75138034779252
rfingers 7.12502
rthumb 10.665995651035779 10.663063372878
39
root 0.03752232400519975 17.584788638495215 6.628748807783339 3.675780457360623 -4.830439024647553 -1.0352142900602457
lfemur 7.3154658844848 -0.5484720404008305 -25.58033632938933
ltibia 69.13127082720712
lfoot 10.283603841034335 -7.835330083651585
ltoes -6.641760114725278
rfemur -32.31651995508996 -3.6434870589625006 31.420358183694745
rtibia 36.4748524577941
rfoot -4.379451109182758 -3.065457368921301
rtoes -14.407609813708842
lowerback 15.873857918151755 -0.9618771036437868 -0.5350505987672167
upperback -0.9013014544926332 -1.4060959557138744 1.8636462951339057
thorax -8.243333567823012 -0.5359521439020397 2.8628570878213413
lowerneck -20.346547530972348 -2.8233682084317473 -2.687250684389982
upperneck 14.754553334812723 -3.3852052870371487 2.2962594066835136
head 8.1014526737923 -1.457997333501229 0.7000729935598625
lclavicle -1.7132824567077027e-15 1.7948636705890435e-15
lhumerus -38.67266398379542 -18.654646912685262 95.75739636965696
lradius 104.0466392051694
lwrist 31.326833442713088
lhand -24.411070333804496 0.03743599176454526
lfingers 7.12502
lthumb 2.169874459031565 30.3240324519517
rclavicle -1.7266284779345725e-15 1.7835554455679496e-15
rhumerus -63.98208861982581 -0.25569190923147644 -94.07592943808741
rradius 112.12751631693789
rwrist -13.243325989195169
rhand -15.080609509017387 39.568071656055984
rfingers 7.12502
rthumb 10.590883756368518 10.777266749454803
40
root 0.04425166926408278 17.397211209650838 7.597476348273338 3.56230109443449 -5.219381825075278 -1.3847184070951561
lfemur 4.115408879979915 1.4174969581556496 -23.946233527891533
ltibia 77.26958289082341
lfoot 8.253321020527501 -6.9935471097688735
ltoes -6.955454485542088
rfemur -30.837935940343627 -2.9281846021725957 32.05303696318784
rtibia 41.49341954372257
rfoot -6.53595232137531 -0.8677013495454515
rtoes 0.5787991469971594
lowerback 15.994735151677872 -0.6435896658613502 -0.2005165933901778
upperback -0.7223273108798947 -0.9238917041958152 2.0180267766438007
thorax -8.201101004856321 -0.31576667937475433 2.7443407154569504
lowerneck -20.44468416227237 -2.8758913085018682 -2.6564590232682948
upperneck 14.821897571913958 -3.4488055793793118 2.1662762585324873
head 8.08724959655166 -1.508261925263195 0.6220253036205641
lclavicle -1.7127237152778337e-15 1.7952591345846762e-15
lhumerus -40.79555085266033 -17.852258487873325 96.87504898648156
lradius 100.60015234531103
lwrist 30.536569284836826
lhand -24.65047641034559 0.13387212004621407
lfingers 7.12502
lthumb 1.9795503315656702 30.095418724155
rclavicle -1.7284012804978635e-15 1.782214833227038e-15
rhumerus -62.626984128241894 0.11581842505994366 -94.13337418189869
rradius 111.40512546737901
rwrist -13.33205077959569
rhand -15.511537279963566 39.61074829140944
rfingers 7.12502
rthumb 10.480894417224349 10.703076838877378
41
root 0.033845138487375 17.264874901819333 8.711328695891241 3.9393028818588602 -5.727883313669791 -2.847380135262944
lfemur 0.08458224353434396 3.8468973559254924 -20.796884183126974
ltibia 84.82906551786904
lfoot 6.310707732724436 -6.4847927169616195
ltoes -5.431570029695709
rfemur -29.25483985536635 -0.828296399721216 33.73165609210156
rtibia 47.177849720713546
rfoot -9.724176082108714 -2.5527813423623527
rtoes 5.642446362232892
lowerback 16.097214123321585 -0.2423013964609726 1.1779593543469433
upperback -0.7272377723683817 -0.04715805823644459 2.5516770749500752
thorax -8.306308814427778 0.06167556037223754 2.3086830427815364
lowerneck -20.51947464686611 -2.912533931020678 -2.619261164084438
upperneck 14.790048445622816 -3.4784589475129186 2.0225167203645995
head 8.086001920642271 -1.53822108839586 0.5391739609580004
lclavicle -1.7139193026053764e-15 1.79439939861691e-15
lhumerus -42.73411561019423 -16.900650160741787 97.74034167961638
lradius 97.2550867816304
lwrist 29.523052461482116
lhand -24.93550356813429 -0.015271906796910928
lfingers 7.12502
lthumb 1.6002062813331583 29.447791659288267
rclavicle -1.730241447985887e-15 1.7812680814251184e-15
rhumerus -60.89743450735857 0.7916307258971758 -94.41683455498773
rradius 110.57572929283894
rwrist -13.585621287538437
rhand -15.960324345918048 39.52815315532449
rfingers 7.12502
rthumb 10.409120933592604 10.425440250779742
42
root 0.02350166125479411 17.14516364173527 9.737300154937945 4.234223080444449 -5.3884552459246775 -4.935198101149501
lfemur -4.058669152690145 5.3992860655226105 -16.91602598107952
ltibia 91.73456243955698
lfoot 3.7411533881277075 -6.018382450920819
ltoes -1.5885237106046013
rfemur -27.260242093274698 1.074953294311365 35.90070476448177
rtibia 51.96987321191918
rfoot -12.72118264733947 -7.4756296479329
rtoes 7.519200402064502
lowerback 16.606345288273445 -0.1379584315682656 3.279387626074384
upperback -0.8001367807081436 0.5636703031453765 3.244769568173607
thorax -8.63308829145468 0.29565353604977057 1.710097460734473
lowerneck -20.495382517282806 -2.9675075031652245 -2.6092638545962874
upperneck 14.70734530618301 -3.5637615418628976 1.9975889259562964
head 8.092654121566543 -1.580611511917923 0.4937917353732113
lclavicle -1.7117392746511363e-15 1.795972498603626e-15
lhumerus -44.91420103643291 -15.869130995761395 98.34977417759029
lradius 94.144484388084
lwrist 28.825074446612902
lhand -24.61663578126306 0.12343639438876775
lfingers 7.12502
lthumb 1.7622982638633482 30.013712686758694
rclavicle -1.730295377550975e-15 1.7812741193228366e-15
rhumerus -58.79238385198403 1.7703575750637137 -94.82324539001476
rradius 109.87441677557226
rwrist -13.813086935481685
rhand -16.43303335725002 39.605735630114864
rfingers 7.12502
rthumb 10.23334197716971 10.355157668935362
43
root 0.026040753816058415 17.098180797114924 10.730258421389555 4.852561127753621 -4.547999777992121 -5.853967267419899
lfemur -8.804738958432239 5.996210438389069 -14.640276123298257
ltibia 97.22745272707716
lfoot 2.048238803216816 -5.512302544775984
ltoes 1.224513472609761
rfemur -25.4605114623302 2.113792883664134 36.72599819383147
rtibia 55.997794363089966
rfoot -15.024924448384871 -12.931309544345805
rtoes 4.753815653114141
lowerback 16.588513148013945 -0.05050516287926465 4.308754524915766
upperback -0.7909079784418649 0.8727134286018936 3.5619370104870614
thorax -8.563713988818407 0.407348952930432 1.5451789963878089
lowerneck -20.63687628032941 -3.004091413530308 -2.5690696542341516
upperneck 14.43801619312411 -3.615619512149813 2.0350460195715074
head 8.055047142004703 -1.5975203362110368 0.47525290122178815
lclavicle -1.7125417434423467e-15 1.795391119281511e-15
lhumerus -47.11590284478249 -15.027464576482167 98.97118336217349
lradius 91.70361238807152
lwrist 28.64838414171016
lhand -24.51511027253692 0.6613795903317274
lfingers 7.12502
lthumb 1.9891866659041595 30.206199300601696
rclavicle -1.7285099219352122e-15 1.7827618616675374e-15
rhumerus -56.40267173453305 3.1424061302967683 -95.17484697672083
rradius 109.4884081179171
rwrist -13.553517352041776
rhand -16.85377250531635 39.680761081258865
rfingers 7.12502
rthumb 10.171046023250284 10.397913727893776
44
root 0.018017774309957768 17.06532051962813 11.710482770651025 5.348464743816863 -4.393581362651321 -5.318471143802913
lfemur -13.317701991166762 6.926992352849321 -14.2906987743718
ltibia 101.16580893537669
lfoot 0.2727963905141479 -4.694695996277113
ltoes 0.11282258212032303
rfemur -23.675007243615543 3.3400028689019057 36.21089266862187
rtibia 59.40152406364544
rfoot -16.320402765167287 -16.2241522506133
rtoes 3.4648463245763597
lowerback 16.132327566768705 0.40177719439694287 3.6302482711672157
upperback -0.7305749882412103 1.3443770392015089 3.3726575621990698
thorax -8.393573644344093 0.6480823141443078 1.8223024526874583
lowerneck -20.627921779333548 -3.0707067115570026 -2.526098694433949
upperneck 14.040699100843495 -3.731714695517897 2.156700226760433
head 7.961265474723935 -1.642455422540313 0.5017150466063642
lclavicle -1.7118413277905079e-15 1.795918134141562e-15
lhumerus -49.35368899865881 -14.480724692813371 99.36264430100347
lradius 90.21926251779315
lwrist 29.60493470650105
lhand -24.86594027180004 2.2524192835220394
lfingers 7.12502
lthumb 1.6849576969486861 31.65628299224661
rclavicle -1.7269015028403882e-15 1.7842350695903284e-15
rhumerus -54.120184107579306 4.546914078207492 -95.55824029595063
rradius 109.47855030312623
rwrist -12.717307222758542
rhand -17.00146710020865 39.73401182858164
rfingers 7.12502
rthumb 10.100206151477256 10.184889527612407
